<svg width="13" height="14" viewBox="0 0 13 14" fill="none" xmlns="http://www.w3.org/2000/svg">
<path fill-rule="evenodd" clip-rule="evenodd" d="M12.8625 6.71245C12.8625 6.24711 12.8208 5.79966 12.7432 5.37012H6.5625V7.90863H10.0943C9.94221 8.72894 9.47985 9.42397 8.78481 9.88932V11.5359H10.9057C12.1466 10.3934 12.8625 8.71104 12.8625 6.71245Z" fill="#5383EC"/>
<path fill-rule="evenodd" clip-rule="evenodd" d="M6.56227 13.1252C8.33416 13.1252 9.81968 12.5376 10.9055 11.5353L8.78459 9.8887C8.19694 10.2825 7.44523 10.5151 6.56227 10.5151C4.85303 10.5151 3.40629 9.36072 2.89024 7.80957H0.697754V9.50986C1.77759 11.6546 3.99692 13.1252 6.56227 13.1252Z" fill="#58A65C"/>
<path fill-rule="evenodd" clip-rule="evenodd" d="M2.8905 7.80929C2.75925 7.41554 2.68467 6.99494 2.68467 6.56241C2.68467 6.12988 2.75925 5.70928 2.8905 5.31553V3.61523H0.698015C0.253552 4.50118 0 5.50345 0 6.56241C0 7.62136 0.253552 8.62364 0.698015 9.50958L2.8905 7.80929Z" fill="#F1BF42"/>
<path fill-rule="evenodd" clip-rule="evenodd" d="M6.56227 2.6101C7.52577 2.6101 8.39083 2.94121 9.07095 3.5915L10.9532 1.70924C9.81669 0.650288 8.33117 0 6.56227 0C3.99692 0 1.77759 1.4706 0.697754 3.61536L2.89024 5.31565C3.40629 3.76451 4.85303 2.6101 6.56227 2.6101Z" fill="#D85140"/>
</svg>
